<svg xmlns="http://www.w3.org/2000/svg" width="17.552" height="23.404" viewBox="0 0 17.552 23.404"><path d="M3.7,21.586a1.463,1.463,0,0,0,2.839.71L7.693,17.68,5.28,15.268Zm.681-8.965L6.262,5.348a.717.717,0,0,0-.545-.871A3.757,3.757,0,0,0,1.177,7.09L.022,11.576a.717.717,0,0,0,.545.871l2.905.7a.752.752,0,0,0,.908-.523Zm12.44-5.307H16.09a.731.731,0,0,0-.731.731v.731H13.77L11.632,6.638A2.687,2.687,0,0,0,7.125,7.886L5.895,12.81A1.463,1.463,0,0,0,6.28,14.2l3.959,3.959v3.783a1.463,1.463,0,1,0,2.925,0V18.158a2.906,2.906,0,0,0-.857-2.068l-2.14-2.14c.007-.023.022-.041.028-.064l.909-3.637,1.025,1.025a1.463,1.463,0,0,0,1.034.429h2.194v10.97a.731.731,0,0,0,.731.731h.731a.731.731,0,0,0,.731-.731V8.045a.73.73,0,0,0-.731-.731ZM10.97,4.388A2.194,2.194,0,1,0,8.776,2.194,2.194,2.194,0,0,0,10.97,4.388Z" transform="translate(0)" fill="#2a65aa" opacity="0.9"/></svg>