<svg xmlns="http://www.w3.org/2000/svg" width="22.408" height="22.405" viewBox="0 0 22.408 22.405"><path d="M18.908,4.2a2.1,2.1,0,1,0-2.1-2.1A2.1,2.1,0,0,0,18.908,4.2Zm3.2,15.586a1.046,1.046,0,0,0-1.484,0,1.781,1.781,0,0,1-1.974.381L12.7,17.1l2.153-3.23a2.1,2.1,0,0,0-.263-2.652L12.824,9.441,8.141,7.117A2.792,2.792,0,0,0,8.916,9.5L12.2,12.789,10.194,15.8,1.532,11.323a1.049,1.049,0,1,0-.963,1.865l17.153,8.863a3.854,3.854,0,0,0,1.624.355A3.9,3.9,0,0,0,22.1,21.267a1.049,1.049,0,0,0,0-1.479ZM5.252,4.009l-.5.985a1.714,1.714,0,0,0,1.873-.21L8.688,5.808s0,.009-.009.013l5.012,2.486,1.418-.569.28.836a2.083,2.083,0,0,0,1.05,1.212l2.543,1.269a1.4,1.4,0,0,0,1.252-2.5L17.954,7.41l-.748-2.241a2.812,2.812,0,0,0-3.7-1.716L9.953,4.876,7.218,3.519A1.7,1.7,0,0,0,6.3,1.961l-.486.95H5.808L4.3,2.6a.224.224,0,0,0-.219.074A.229.229,0,0,0,4.106,3L5.252,4.009Z" transform="translate(0)" fill="#2a65aa" opacity="0.9"/></svg>