<svg xmlns="http://www.w3.org/2000/svg" width="23.183" height="19.872" viewBox="0 0 23.183 19.872"><g transform="translate(0 0)" opacity="0.9"><g transform="translate(0 0)"><path d="M7.078,19.822a3.4,3.4,0,1,1-2.386,1,3.356,3.356,0,0,1,2.386-1m0-1.449a4.831,4.831,0,1,0,4.828,4.833,4.843,4.843,0,0,0-4.828-4.833Z" transform="translate(-2.25 -8.163)" fill="#2a65aa"/><path d="M21.892,7.8a1.648,1.648,0,0,0,1.656-1.656A1.63,1.63,0,0,0,21.9,4.5a1.651,1.651,0,1,0-.01,3.3Z" transform="translate(-6.999 -4.5)" fill="#2a65aa"/><path d="M25.458,19.822a3.4,3.4,0,1,1-2.386,1,3.356,3.356,0,0,1,2.386-1m0-1.449A4.828,4.828,0,1,0,30.286,23.2a4.843,4.843,0,0,0-4.828-4.828Z" transform="translate(-7.103 -8.163)" fill="#2a65aa"/></g><path d="M22.014,12.089H19.53L18,8.979a1.619,1.619,0,0,0-2.562-.342l-3.71,3.576a1.685,1.685,0,0,0-.481,1.159,1.542,1.542,0,0,0,.957,1.4c2.355,1.356,3.183,1.506,3.183,2.184v3.41a.828.828,0,1,0,1.656,0V15.712c0-.683-1.573-1.242-2.5-1.966l2.531-2.665c.968,1.475,1.413,2.665,1.966,2.665h2.97a.828.828,0,1,0,0-1.656Z" transform="translate(-4.626 -5.465)" fill="#2a65aa"/></g></svg>