<svg xmlns="http://www.w3.org/2000/svg" width="25.492" height="23.899" viewBox="0 0 25.492 23.899"><g transform="translate(0 0)" opacity="0.9"><g transform="translate(0 0)"><path d="M27.623,4.122A1.956,1.956,0,1,1,25.667,2.16a1.959,1.959,0,0,1,1.956,1.962Z" transform="translate(-6.752 -2.16)" fill="#2a65aa"/><path d="M7.231,24.186.72,17.636l0,1.144,6.06,6.1c.7.757,1.889-.118,1.889-.118L8.1,24.148s-.563.371-.855.055l-.014-.017ZM.72,11.864h6.9V12.4H.72ZM25.453,10l.759.36L18.647,25.672h-.838ZM12.9,8.749,9.854,12.274a.97.97,0,0,1-.76.362.988.988,0,0,1-.653-1.727l3.282-3.792a.987.987,0,0,1,.759-.356l4.752,0a1.292,1.292,0,0,1,.893.362l3.03,3.039,2.51-2.512a1,1,0,0,1,.653-.241,1.022,1.022,0,0,1,.789,1.665l-3.027,3.059a1.1,1.1,0,0,1-1.659.139L18.566,10.4l-2.9,3.366,2.66,2.668A1.509,1.509,0,0,1,18.563,18l-1.491,6.663a1.265,1.265,0,0,1-2.5-.255,1.134,1.134,0,0,1,.041-.319l1.225-5.469-3.021-2.944-2.6,2.906a1.879,1.879,0,0,1-1.537.481L3.4,19.068a1.266,1.266,0,0,1-1.257-.991,1.249,1.249,0,0,1,.947-1.506,1.16,1.16,0,0,1,.318-.029l4.535.011,6.7-7.8L12.9,8.749Z" transform="translate(-0.72 -3.367)" fill="#2a65aa"/></g><path d="M27.171,32.515a.977.977,0,0,1-.937.973H10.8v.531H26.231A1.531,1.531,0,0,0,27.795,32.5Z" transform="translate(-3.365 -10.12)" fill="#2a65aa"/></g></svg>