<svg xmlns="http://www.w3.org/2000/svg" xmlns:xlink="http://www.w3.org/1999/xlink" width="14" height="14" viewBox="0 0 14 14"><defs><clipPath id="a"><rect width="14" height="14" fill="none"/></clipPath></defs><g clip-path="url(#a)"><path d="M7.1,1.263a21.78,21.78,0,0,1,2.841.079,3.661,3.661,0,0,1,1.342.237A2.772,2.772,0,0,1,12.628,2.92a3.661,3.661,0,0,1,.237,1.342c0,.71.079.947.079,2.841a21.779,21.779,0,0,1-.079,2.841,3.661,3.661,0,0,1-.237,1.342,2.772,2.772,0,0,1-1.342,1.342,3.661,3.661,0,0,1-1.342.237c-.71,0-.947.079-2.841.079a21.779,21.779,0,0,1-2.841-.079,3.661,3.661,0,0,1-1.342-.237,2.772,2.772,0,0,1-1.342-1.342,3.661,3.661,0,0,1-.237-1.342c0-.71-.079-.947-.079-2.841a21.78,21.78,0,0,1,.079-2.841A3.661,3.661,0,0,1,1.578,2.92a2.835,2.835,0,0,1,.552-.789,1.334,1.334,0,0,1,.789-.552,3.661,3.661,0,0,1,1.342-.237A21.78,21.78,0,0,1,7.1,1.263M7.1,0a23.32,23.32,0,0,0-2.92.079A4.872,4.872,0,0,0,2.447.395a3.09,3.09,0,0,0-1.263.789A3.09,3.09,0,0,0,.395,2.447,3.6,3.6,0,0,0,.079,4.183,23.32,23.32,0,0,0,0,7.1a23.32,23.32,0,0,0,.079,2.92A4.872,4.872,0,0,0,.395,11.76a3.09,3.09,0,0,0,.789,1.263,3.09,3.09,0,0,0,1.263.789,4.872,4.872,0,0,0,1.736.316,23.32,23.32,0,0,0,2.92.079,23.32,23.32,0,0,0,2.92-.079,4.872,4.872,0,0,0,1.736-.316,3.311,3.311,0,0,0,2.052-2.052,4.872,4.872,0,0,0,.316-1.736c0-.789.079-1.026.079-2.92a23.32,23.32,0,0,0-.079-2.92,4.872,4.872,0,0,0-.316-1.736,3.09,3.09,0,0,0-.789-1.263A3.09,3.09,0,0,0,11.76.395,4.872,4.872,0,0,0,10.023.079,23.32,23.32,0,0,0,7.1,0m0,3.473A3.572,3.572,0,0,0,3.473,7.1,3.63,3.63,0,1,0,7.1,3.473m0,6A2.325,2.325,0,0,1,4.735,7.1,2.325,2.325,0,0,1,7.1,4.735,2.325,2.325,0,0,1,9.471,7.1,2.325,2.325,0,0,1,7.1,9.471m3.788-7.024a.868.868,0,1,0,.868.868.876.876,0,0,0-.868-.868" fill="#a9bed5" fill-rule="evenodd"/></g></svg>