<svg xmlns="http://www.w3.org/2000/svg" width="14.206" height="11.523" viewBox="0 0 14.206 11.523"><path d="M42.5,13.523a8.213,8.213,0,0,0,8.287-8.287V4.841a6.416,6.416,0,0,0,1.421-1.5,6.552,6.552,0,0,1-1.657.474,3.071,3.071,0,0,0,1.263-1.578A7.239,7.239,0,0,1,50,2.947,2.819,2.819,0,0,0,47.865,2a2.965,2.965,0,0,0-2.92,2.92,1.539,1.539,0,0,0,.079.631,8.16,8.16,0,0,1-6-3.078,3.023,3.023,0,0,0-.395,1.5A3.136,3.136,0,0,0,39.894,6.42a2.661,2.661,0,0,1-1.342-.395h0A2.884,2.884,0,0,0,40.92,8.866a2.433,2.433,0,0,1-.789.079,1.343,1.343,0,0,1-.552-.079,2.99,2.99,0,0,0,2.762,2.052,5.959,5.959,0,0,1-3.63,1.263A2.185,2.185,0,0,1,38,12.1a7.449,7.449,0,0,0,4.5,1.421" transform="translate(-38 -2)" fill="#a9bed5" fill-rule="evenodd"/></svg>