<svg xmlns="http://www.w3.org/2000/svg" width="13.694" height="17.661" viewBox="0 0 13.694 17.661"><g fill="#2a65aa"><path d="M 6.846899032592773 16.92256736755371 C 6.255832195281982 16.26999473571777 5.030211925506592 14.87850379943848 3.817568063735962 13.26581859588623 C 1.647198081016541 10.3794584274292 0.4999980330467224 8.111628532409668 0.4999980330467224 6.707518577575684 C 0.4999980330467224 6.303908348083496 0.5364080667495728 5.876228332519531 0.7141080498695374 5.100838661193848 L 0.7147980332374573 5.097858428955078 L 0.7154480218887329 5.094868659973145 C 0.9812180399894714 3.866248369216919 1.732738018035889 2.720728397369385 2.831547975540161 1.869298458099365 C 3.971117973327637 0.9862884879112244 5.397118091583252 0.4999984800815582 6.84686803817749 0.4999984800815582 C 10.34654808044434 0.4999984800815582 13.19373798370361 3.28467845916748 13.19373798370361 6.707518577575684 C 13.19373798370361 8.112888336181641 12.04466819763184 10.38320827484131 9.87073802947998 13.27303886413574 C 8.658905029296875 14.88394165039063 7.436837673187256 16.27132034301758 6.846899032592773 16.92256736755371 Z" stroke="none"/><path d="M 6.84686803817749 0.9999980926513672 C 5.507417678833008 0.9999980926513672 4.190177917480469 1.449089050292969 3.137798309326172 2.264528274536133 C 2.131808280944824 3.044038772583008 1.445088386535645 4.086738586425781 1.204137802124023 5.200578689575195 L 1.202848434448242 5.206568717956543 L 1.201478004455566 5.212538719177246 C 1.034257888793945 5.942158699035645 0.9999980926513672 6.337858200073242 0.9999980926513672 6.707518577575684 C 0.9999980926513672 7.446018218994141 1.417258262634277 9.240078926086426 4.211808204650879 12.95815849304199 C 5.199966430664063 14.27287483215332 6.197981834411621 15.44029808044434 6.846967220306396 16.17309761047363 C 7.492958545684814 15.44376945495605 8.485014915466309 14.28337574005127 9.47117805480957 12.97245788574219 C 12.27507781982422 9.24518871307373 12.69373798370361 7.447408676147461 12.69373798370361 6.707518577575684 C 12.69373798370361 3.560378074645996 10.07084846496582 0.9999980926513672 6.84686803817749 0.9999980926513672 M 6.84686803817749 -1.9073486328125e-06 C 10.62828826904297 -1.9073486328125e-06 13.69373798370361 3.003058433532715 13.69373798370361 6.707518577575684 C 13.69373798370361 10.41196823120117 6.84686803817749 17.66137886047363 6.84686803817749 17.66137886047363 C 6.84686803817749 17.66137886047363 -1.9073486328125e-06 10.41196823120117 -1.9073486328125e-06 6.707518577575684 C -1.9073486328125e-06 6.222228050231934 0.05260848999023438 5.748978614807129 0.2267484664916992 4.989148139953613 C 0.8154382705688477 2.267788887023926 3.560817718505859 -1.9073486328125e-06 6.84686803817749 -1.9073486328125e-06 Z" stroke="none" fill="#707070"/></g></svg>